<svg viewBox="0 0 71 20" xmlns="http://www.w3.org/2000/svg">
<path d="M13.712 7.71992C13.712 8.74392 13.472 9.67992 12.992 10.5279C12.528 11.3599 11.816 12.0319 10.856 12.5439C9.91199 13.0399 8.75199 13.2879 7.37599 13.2879H5.04799V18.9999H0.343994V2.07992H7.37599C8.73599 2.07992 9.88799 2.31992 10.832 2.79992C11.792 3.27992 12.512 3.94392 12.992 4.79192C13.472 5.63992 13.712 6.61592 13.712 7.71992ZM6.91999 9.54392C8.24799 9.54392 8.91199 8.93592 8.91199 7.71992C8.91199 6.48792 8.24799 5.87192 6.91999 5.87192H5.04799V9.54392H6.91999Z" fill="#27272A"/>
<path d="M21.8658 19.1679C20.5218 19.1679 19.3138 18.8879 18.2418 18.3279C17.1858 17.7679 16.3538 16.9679 15.7458 15.9279C15.1378 14.8879 14.8338 13.6639 14.8338 12.2559C14.8338 10.8639 15.1378 9.64792 15.7458 8.60792C16.3698 7.56792 17.2098 6.76792 18.2658 6.20792C19.3378 5.64792 20.5458 5.36792 21.8898 5.36792C23.2338 5.36792 24.4338 5.64792 25.4898 6.20792C26.5618 6.76792 27.4018 7.56792 28.0098 8.60792C28.6338 9.64792 28.9458 10.8639 28.9458 12.2559C28.9458 13.6479 28.6338 14.8719 28.0098 15.9279C27.4018 16.9679 26.5618 17.7679 25.4898 18.3279C24.4178 18.8879 23.2098 19.1679 21.8658 19.1679ZM21.8658 15.0879C22.5218 15.0879 23.0658 14.8479 23.4978 14.3679C23.9458 13.8719 24.1698 13.1679 24.1698 12.2559C24.1698 11.3439 23.9458 10.6479 23.4978 10.1679C23.0658 9.68792 22.5298 9.44792 21.8898 9.44792C21.2498 9.44792 20.7138 9.68792 20.2818 10.1679C19.8498 10.6479 19.6338 11.3439 19.6338 12.2559C19.6338 13.1839 19.8418 13.8879 20.2578 14.3679C20.6738 14.8479 21.2098 15.0879 21.8658 15.0879Z" fill="#27272A"/>
<path d="M35.5636 0V18.9999H30.8596V0H35.5636Z" fill="#30D346"/>
<path d="M43 2.99999L42.9464 18.9999H38.2424V2.99999H43Z" fill="#FF7474"/>
<path d="M44.8572 12.2559C44.8572 10.8639 45.1052 9.64792 45.6012 8.60792C46.1132 7.56792 46.8012 6.76792 47.6652 6.20792C48.5452 5.64792 49.5212 5.36792 50.5932 5.36792C51.5212 5.36792 52.3212 5.55192 52.9932 5.91992C53.6652 6.28792 54.1852 6.78392 54.5532 7.40792V5.53592H59.2572V18.9999H54.5532V17.1279C54.1852 17.7519 53.6572 18.2479 52.9692 18.6159C52.2972 18.9839 51.5052 19.1679 50.5932 19.1679C49.5212 19.1679 48.5452 18.8879 47.6652 18.3279C46.8012 17.7679 46.1132 16.9679 45.6012 15.9279C45.1052 14.8719 44.8572 13.6479 44.8572 12.2559ZM54.5532 12.2559C54.5532 11.3919 54.3132 10.7119 53.8332 10.2159C53.3692 9.71992 52.7932 9.47192 52.1052 9.47192C51.4012 9.47192 50.8172 9.71992 50.3532 10.2159C49.8892 10.6959 49.6572 11.3759 49.6572 12.2559C49.6572 13.1199 49.8892 13.8079 50.3532 14.3199C50.8172 14.8159 51.4012 15.0639 52.1052 15.0639C52.7932 15.0639 53.3692 14.8159 53.8332 14.3199C54.3132 13.8239 54.5532 13.1359 54.5532 12.2559Z" fill="#27272A"/>
<path d="M66.6417 7.91192C67.1697 7.14392 67.8097 6.53592 68.5617 6.08792C69.3137 5.63992 70.1217 5.41592 70.9857 5.41592V10.4319H69.6657C68.6417 10.4319 67.8817 10.6319 67.3857 11.0319C66.8897 11.4319 66.6417 12.1279 66.6417 13.1199V18.9999H61.9377V5.53592H66.6417V7.91192Z" fill="#27272A"/>
</svg>
