<svg viewBox="0 0 17 14" xmlns="http://www.w3.org/2000/svg">
<path d="M2.23978 13.3097C1.89486 13.3097 1.70561 13.3083 1.57432 13.2906C1.57261 13.2904 1.57094 13.2901 1.5693 13.2899C1.56907 13.2883 1.56884 13.2866 1.56861 13.2849C1.55095 13.1536 1.54949 12.9644 1.54949 12.6194V4.55513C1.54949 4.21021 1.55095 4.02096 1.56861 3.88967C1.56884 3.88796 1.56907 3.88628 1.5693 3.88464C1.57094 3.88441 1.57261 3.88418 1.57432 3.88395C1.70561 3.8663 1.89486 3.86483 2.23978 3.86483H2.93008C3.27501 3.86483 3.46426 3.8663 3.59554 3.88395C3.59725 3.88418 3.59893 3.88441 3.60057 3.88464C3.6008 3.88628 3.60103 3.88796 3.60126 3.88967C3.61891 4.02096 3.62038 4.21021 3.62038 4.55513V12.6194C3.62038 12.9644 3.61891 13.1536 3.60126 13.2849C3.60103 13.2866 3.6008 13.2883 3.60057 13.2899C3.59893 13.2901 3.59725 13.2904 3.59554 13.2906C3.46425 13.3083 3.275 13.3097 2.93008 13.3097H2.23978ZM8.27988 13.3097C7.93495 13.3097 7.74571 13.3083 7.61442 13.2906C7.61271 13.2904 7.61103 13.2901 7.60939 13.2899C7.60916 13.2883 7.60893 13.2866 7.6087 13.2849C7.59105 13.1536 7.58958 12.9644 7.58958 12.6194V1.46214C7.58958 1.11721 7.59105 0.927962 7.6087 0.796673C7.60893 0.794963 7.60916 0.793287 7.60939 0.791647C7.61103 0.791417 7.61271 0.791187 7.61442 0.790957C7.74571 0.773305 7.93496 0.771839 8.27988 0.771839H8.97018C9.3151 0.771839 9.50435 0.773305 9.63564 0.790957C9.63735 0.791187 9.63902 0.791417 9.64067 0.791646C9.64089 0.793287 9.64112 0.794963 9.64135 0.796673C9.65901 0.927962 9.66047 1.11721 9.66047 1.46214V12.6194C9.66047 12.9644 9.65901 13.1536 9.64135 13.2849C9.64112 13.2866 9.64089 13.2883 9.64067 13.2899C9.63902 13.2901 9.63735 13.2904 9.63564 13.2906C9.50435 13.3083 9.3151 13.3097 8.97018 13.3097H8.27988ZM14.32 13.3097C13.975 13.3097 13.7858 13.3083 13.6545 13.2906C13.6528 13.2904 13.6511 13.2901 13.6495 13.2899C13.6493 13.2883 13.649 13.2866 13.6488 13.2849C13.6311 13.1536 13.6297 12.9644 13.6297 12.6194V9.19462C13.6297 8.8497 13.6311 8.66045 13.6488 8.52916C13.649 8.52745 13.6493 8.52578 13.6495 8.52413C13.6511 8.5239 13.6528 8.52367 13.6545 8.52345C13.7858 8.50579 13.975 8.50433 14.32 8.50433H15.0103C15.3552 8.50433 15.5444 8.50579 15.6757 8.52345C15.6774 8.52367 15.6791 8.5239 15.6808 8.52413C15.681 8.52577 15.6812 8.52745 15.6814 8.52916C15.6991 8.66045 15.7006 8.8497 15.7006 9.19462V12.6194C15.7006 12.9644 15.6991 13.1536 15.6814 13.2849C15.6812 13.2866 15.681 13.2883 15.6808 13.2899C15.6791 13.2901 15.6774 13.2904 15.6757 13.2906C15.5444 13.3083 15.3552 13.3097 15.0103 13.3097H14.32Z" stroke="white" stroke-width="1.38059"/>
</svg>
